<?xml version="1.0" encoding="UTF-8" standalone="no"?>
<!DOCTYPE svg PUBLIC "-//W3C//DTD SVG 1.1//EN" "http://www.w3.org/Graphics/SVG/1.1/DTD/svg11.dtd">
<svg version="1.1" xmlns="http://www.w3.org/2000/svg" xmlns:xlink="http://www.w3.org/1999/xlink" preserveAspectRatio="xMidYMid meet" viewBox="0 0 682 682" width="682" height="682"><defs><path d="M0 341C0 529.03 152.97 682 341 682C529.03 682 682 529.03 682 341C682 152.97 529.03 0 341 0C152.97 0 0 152.97 0 341Z" id="dHDCKAaFM"></path><linearGradient id="gradientdqdwdFUft" gradientUnits="userSpaceOnUse" x1="341" y1="0" x2="341" y2="682"><stop style="stop-color: #f92929;stop-opacity: 1" offset="0%"></stop><stop style="stop-color: #010000;stop-opacity: 1" offset="100%"></stop></linearGradient><path d="M329.12 453.44C323.58 458.98 316.31 461.77 309.03 461.77C301.76 461.77 294.48 458.98 288.94 453.44C279.71 444.21 205.82 370.32 196.59 361.09C185.47 349.98 185.47 332.02 196.59 320.91C207.7 309.8 225.65 309.8 236.77 320.91C241.59 325.73 265.67 349.82 309.03 393.17C407.8 294.4 462.68 239.53 473.65 228.56C484.76 217.44 502.72 217.44 513.83 228.56C524.94 239.67 524.94 257.62 513.83 268.74C476.89 305.68 347.59 434.97 329.12 453.44Z" id="dyBBkylE0"></path></defs><g><g><g><use xlink:href="#dHDCKAaFM" opacity="1" fill="url(#gradientdqdwdFUft)"></use><g><use xlink:href="#dHDCKAaFM" opacity="1" fill-opacity="0" stroke="#000000" stroke-width="1" stroke-opacity="0"></use></g></g><g><use xlink:href="#dyBBkylE0" opacity="1" fill="#fafafa" fill-opacity="1"></use><g><use xlink:href="#dyBBkylE0" opacity="1" fill-opacity="0" stroke="#000000" stroke-width="1" stroke-opacity="0"></use></g></g></g></g></svg>