<svg width="5" height="18" xmlns="http://www.w3.org/2000/svg" xmlns:xlink="http://www.w3.org/1999/xlink" xmlns:svgjs="http://svgjs.com/svgjs" viewBox="0.38 0 4.241 18" fill="#FD5272"><svg xmlns="http://www.w3.org/2000/svg" width="5" height="18" viewBox="1.997 2 4.005 17"><path paint-order="stroke fill markers" fill-rule="evenodd" d="M1.997 16.763c0-1.235.897-2.237 2.003-2.237s2.002 1.002 2.002 2.237C6.002 18 5.106 19 4 19c-1.106 0-2.003-1.001-2.003-2.237zm0-6.263c0-1.235.897-2.237 2.003-2.237S6.002 9.265 6.002 10.5 5.106 12.737 4 12.737c-1.106 0-2.003-1.002-2.003-2.237zm0-6.263C1.997 3 2.894 2 4 2s2.002 1.001 2.002 2.237c0 1.235-.896 2.237-2.002 2.237-1.106 0-2.003-1.002-2.003-2.237z"/></svg></svg>